<svg xmlns="http://www.w3.org/2000/svg" width="24.221" height="19.245" viewBox="0 0 24.221 19.245">
  <g id="カメラのアイコン素材_7" data-name="カメラのアイコン素材 7" transform="translate(0 -52.593)">
    <path id="路径_203" data-name="路径 203" d="M206.847,233.109a2.462,2.462,0,1,0,2.441,2.462A2.451,2.451,0,0,0,206.847,233.109Z" transform="translate(-194.736 -171.976)" fill="#ffbb4d"/>
    <path id="路径_204" data-name="路径 204" d="M23.529,56.742a2.361,2.361,0,0,0-1.677-.7H19.288a.535.535,0,0,1-.488-.322L18.032,54a2.369,2.369,0,0,0-2.162-1.407H8.351A2.371,2.371,0,0,0,6.188,54h0l-.767,1.719a.535.535,0,0,1-.488.322H2.369A2.375,2.375,0,0,0,0,58.423V69.457a2.387,2.387,0,0,0,.69,1.681,2.362,2.362,0,0,0,1.679.7H21.852a2.357,2.357,0,0,0,1.677-.7,2.382,2.382,0,0,0,.692-1.681V58.423A2.381,2.381,0,0,0,23.529,56.742ZM22.39,69.457a.552.552,0,0,1-.16.392.532.532,0,0,1-.378.158H2.369a.528.528,0,0,1-.378-.158.552.552,0,0,1-.16-.392V58.423a.552.552,0,0,1,.16-.392.525.525,0,0,1,.378-.158H4.933a2.37,2.37,0,0,0,2.161-1.408l.766-1.719a.541.541,0,0,1,.491-.322H15.87a.539.539,0,0,1,.49.322l.767,1.72a2.368,2.368,0,0,0,2.161,1.407h2.564a.529.529,0,0,1,.378.158.553.553,0,0,1,.16.392V69.457Z" fill="#ffbb4d"/>
    <path id="路径_205" data-name="路径 205" d="M148,170.938a5.326,5.326,0,0,0-3.794,1.585,5.432,5.432,0,0,0,0,7.637,5.332,5.332,0,0,0,7.588,0,5.433,5.433,0,0,0,0-7.637A5.328,5.328,0,0,0,148,170.938Zm2.793,8.229a3.923,3.923,0,0,1-5.586,0,4.022,4.022,0,0,1,0-5.652,3.923,3.923,0,0,1,5.586,0,4.021,4.021,0,0,1,0,5.652Z" transform="translate(-135.893 -112.746)" fill="#ffbb4d"/>
    <rect id="矩形_248" data-name="矩形 248" width="1.628" height="1.628" transform="translate(18.553 59.456)" fill="#ffbb4d"/>
  </g>
</svg>
