<svg id="thumb_up_black_24dp" xmlns="http://www.w3.org/2000/svg" width="17.321" height="17.321" viewBox="0 0 17.321 17.321">
  <path id="路径_44" data-name="路径 44" d="M0,0H17.321V17.321H0Z" fill="none"/>
  <path id="路径_45" data-name="路径 45" d="M1,15.434H3.887V6.774H1ZM16.878,7.5a1.448,1.448,0,0,0-1.443-1.443H10.88l.686-3.3.022-.231a1.086,1.086,0,0,0-.318-.765L10.5,1,5.756,5.756A1.411,1.411,0,0,0,5.33,6.774v7.217a1.448,1.448,0,0,0,1.443,1.443h6.5a1.434,1.434,0,0,0,1.328-.88l2.18-5.088a1.426,1.426,0,0,0,.1-.527Z" transform="translate(-0.278 -0.278)" fill="#ffbb4d"/>
</svg>
