<svg xmlns="http://www.w3.org/2000/svg" xmlns:xlink="http://www.w3.org/1999/xlink" width="39" height="22.813" viewBox="0 0 39 22.813">
  <defs>
    <linearGradient id="linear-gradient" x1="0.47" y1="0.134" x2="0.425" y2="1.29" gradientUnits="objectBoundingBox">
      <stop offset="0" stop-color="#e86b31"/>
      <stop offset="1" stop-color="#fff" stop-opacity="0"/>
    </linearGradient>
  </defs>
  <g id="组_394" data-name="组 394" transform="translate(-41 -144)">
    <g id="ノートPCのアイコン素材2" transform="translate(41 37.749)">
      <path id="路径_201" data-name="路径 201" d="M35.841,127.022c0-.032.011-.064.011-.1V108.034a1.789,1.789,0,0,0-1.783-1.783H4.931a1.788,1.788,0,0,0-1.782,1.783v18.891c0,.033.008.065.011.1H0v.487a1.56,1.56,0,0,0,1.554,1.556H37.443A1.561,1.561,0,0,0,39,127.509v-.487Zm-2.307-.633H5.465V108.568H33.535Z" transform="translate(0 0)" fill="#e86b31"/>
    </g>
    <path id="路径_202" data-name="路径 202" d="M3.653,0A3.653,3.653,0,1,1,0,3.653,3.653,3.653,0,0,1,3.653,0Z" transform="matrix(-0.342, 0.94, -0.94, -0.342, 65.519, 153.687)" fill="url(#linear-gradient)"/>
  </g>
</svg>
