<svg xmlns="http://www.w3.org/2000/svg" xmlns:xlink="http://www.w3.org/1999/xlink" width="404.296" height="856.886" viewBox="0 0 404.296 856.886">
  <defs>
    <filter id="矩形_176" x="107.296" y="89.886" width="297" height="767" filterUnits="userSpaceOnUse">
      <feOffset dy="6" input="SourceAlpha"/>
      <feGaussianBlur stdDeviation="4.5" result="blur"/>
      <feFlood flood-opacity="0.161"/>
      <feComposite operator="in" in2="blur"/>
      <feComposite in="SourceGraphic"/>
    </filter>
    <linearGradient id="linear-gradient" x1="0.47" y1="0.134" x2="0.425" y2="1.29" gradientUnits="objectBoundingBox">
      <stop offset="0" stop-color="#e86b31"/>
      <stop offset="1" stop-color="#fff" stop-opacity="0"/>
    </linearGradient>
    <linearGradient id="linear-gradient-2" x1="0.47" y1="0.134" x2="0.425" y2="1.29" gradientUnits="objectBoundingBox">
      <stop offset="0" stop-color="#ffbb4d"/>
      <stop offset="1" stop-color="#fff" stop-opacity="0"/>
    </linearGradient>
  </defs>
  <g id="组_399" data-name="组 399" transform="translate(120.796 97.386)">
    <g transform="matrix(1, 0, 0, 1, -120.8, -97.39)" filter="url(#矩形_176)">
      <rect id="矩形_176-2" data-name="矩形 176" width="270" height="740" transform="translate(120.8 97.39)" fill="#fff"/>
    </g>
    <path id="路径_195" data-name="路径 195" d="M54.119,0A54.119,54.119,0,1,1,0,54.119,54.119,54.119,0,0,1,54.119,0Z" transform="matrix(-0.469, 0.883, -0.883, -0.469, 279.304, 170.432)" opacity="0.302" fill="url(#linear-gradient)"/>
    <path id="路径_196" data-name="路径 196" d="M127.127,0A127.127,127.127,0,1,1,0,127.127,127.127,127.127,0,0,1,127.127,0Z" transform="matrix(0.469, -0.883, 0.883, 0.469, -120.796, 127.107)" opacity="0.302" fill="url(#linear-gradient-2)"/>
  </g>
</svg>
